<svg width="31" height="39" viewBox="0 0 31 39" fill="none" xmlns="http://www.w3.org/2000/svg">
<path d="M8.25539 10.4675C8.25539 10.4675 8.6267 11.1187 8.82802 11.9367C9.36756 13.5192 9.99334 16.0371 9.26626 17.7273C8.51092 19.4831 7.13755 19.3746 6.90758 21.2727C6.68036 23.1481 8.25539 24.3117 8.25539 24.3117C8.25539 24.3117 9.79274 22.4679 10.6141 21.6104C12.3291 19.8198 10.8426 18.4218 11.9619 16.2078C13.6881 12.7935 18.0512 14.1158 19.2064 10.4675C20.4562 6.52081 17.5217 0 17.5217 0C17.5217 0 21.5651 3.88312 22.4075 5.57143C23.2499 7.25974 26.6016 16.4585 24.5977 18.0649C22.9129 19.4156 21.3966 18.9678 21.3966 21.6104C21.3966 22.961 23.4184 24.987 23.4184 24.987C23.4184 24.987 25.3475 25.2167 25.9455 22.1169C26.6352 18.5418 30.9999 18.9091 30.9999 18.9091C30.9999 18.9091 28.3042 21.5802 27.9673 23.8052C27.5162 26.7839 30.9764 27.8834 30.9999 30.8961C31.0274 34.4343 26.9564 39 26.9564 39H12.6358C12.6358 39 8.20606 37.8199 5.89671 36.1299C2.69716 33.7884 -2.79169e-06 30.3896 0 27.8571C2.79169e-06 25.3247 1.04514 21.9331 3.03259 18.9091C4.49681 16.6812 6.68294 15.8139 8.25539 14.5195C9.06374 13.8541 9.041 12.802 8.82802 11.9367C8.52841 11.0579 8.25539 10.4675 8.25539 10.4675Z" fill="url(#paint0_linear_58_50)"/>
<defs>
<linearGradient id="paint0_linear_58_50" x1="15.5" y1="0" x2="15.5" y2="39" gradientUnits="userSpaceOnUse">
<stop stop-color="#FFB800"/>
<stop offset="0.302698" stop-color="#FFAF00"/>
<stop offset="1" stop-color="#FF5C00"/>
</linearGradient>
</defs>
</svg>
